<?xml version="1.0" encoding="UTF-8"?>
<svg width="601px" height="601px" viewBox="0 0 601 601" version="1.1" xmlns="http://www.w3.org/2000/svg" xmlns:xlink="http://www.w3.org/1999/xlink">
    <!-- Generator: Sketch 58 (84663) - https://sketch.com -->
    <title>Group 2</title>
    <desc>Created with Sketch.</desc>
    <defs>
        <linearGradient x1="50%" y1="0%" x2="50%" y2="100%" id="radialGradient-1">
            <stop stop-color="#6361BD" offset="0%"></stop>
            <stop stop-color="#FF1E03" offset="100%"></stop>
        </linearGradient>
    </defs>
    <g id="Page-1" stroke="none" stroke-width="1" fill="none" fill-rule="evenodd">
        <g id="Group-2">
            <g id="Group">
                <rect id="Rectangle" fill="#6361BD" x="0" y="0" width="601" height="601" rx="29"></rect>
                <rect id="Rectangle" fill="#000000" fill-rule="nonzero" x="218" y="94" width="163" height="304" rx="3.78"></rect>
                <path d="M302,98 L363.434118,98 C373.12489,98.0273836 380.974464,106.444976 381,116.837 L381,378.163 C380.974464,388.555024 373.12489,396.972616 363.434118,397 L302,397 L302,98 Z" id="Path" fill="#000000"></path>
                <path d="M294.36852,195.804095 C290.553821,195.231811 286.795428,193.719346 283.684548,191.49834 C282.192452,190.435527 279.771315,188.091889 278.673358,186.647554 C275.576554,182.573438 274,177.913413 274,172.79011 C274,168.620614 274.999423,164.873518 277.040498,161.385312 C278.194761,159.40957 279.334947,157.978861 281.164877,156.234758 C283.022959,154.463403 284.374291,153.482345 286.598359,152.310526 C287.457018,151.860874 288.400135,151.28859 288.709816,151.056952 C289.216565,150.661803 290.694585,149.694371 294.762658,147.119094 C297.63424,145.306862 298.267677,144.775456 299.562703,143.153985 C300.843654,141.532514 301.36448,140.197185 301.336327,138.698347 C301.322251,137.717289 301.829,138.453082 302.237215,139.992798 C302.772118,141.982166 302.307597,143.75352 300.674737,145.811017 C299.619009,147.13272 299.140412,148.181907 299.2671,148.876823 C299.534551,150.402913 300.942189,151.125081 302.589125,150.580049 C303.771541,150.1849 304.559818,149.367352 305.235484,147.786759 C307.318788,143.004101 309.599161,139.774785 312.569277,137.39027 C316.032066,134.610605 318.791037,133.466038 323.056179,133.070889 C324.632734,132.934631 327.039794,133.00276 327.265016,133.207148 C327.335398,133.275277 327.082024,133.479664 326.701961,133.670425 C325.941837,134.065573 325.955913,134.051947 324.266748,135.128386 C322.183444,136.463715 320.40982,138.453082 319.002182,141.041985 C317.369322,144.053288 317.172253,146.737572 318.453203,148.563429 C319.410397,149.939636 320.226827,150.375662 321.775229,150.389287 C322.760575,150.389287 323.140638,150.293907 325.026872,149.530862 C327.335398,148.590681 327.222787,148.631559 327.799919,148.536178 C328.391127,148.440797 329.601695,148.577055 329.897299,148.754191 C330.052139,148.863197 330.038063,148.9177 329.812841,149.08121 C329.066793,149.612616 327.25094,151.343094 326.701961,152.03801 C324.224519,155.144693 323.196943,158.128744 322.774652,163.524563 C322.605735,165.854576 322.394589,167.912072 322.267902,168.743246 C322.183444,169.247401 322.070833,171.073259 322.014527,172.79011 C321.930069,175.147375 321.817458,176.278316 321.592236,177.354755 C319.494855,187.083579 311.583931,194.346133 301.51932,195.81772 C299.773849,196.062985 296.071762,196.062985 294.36852,195.804095 Z" id="Path" fill="url(#radialGradient-1)" fill-rule="nonzero"></path>
                <path d="M301,223 C281.670034,223 266,238.670034 266,258 C266,277.329966 281.670034,293 301,293 C320.329966,293 336,277.329966 336,258 C335.978902,238.67878 320.32122,223.021098 301,223 Z M301,290.8125 C282.878157,290.8125 268.1875,276.121843 268.1875,258 C268.1875,239.878157 282.878157,225.1875 301,225.1875 C319.121843,225.1875 333.8125,239.878157 333.8125,258 C333.791405,276.113098 319.113098,290.791405 301,290.8125 L301,290.8125 Z" id="Shape" stroke="#6361BD" stroke-width="4" fill="#6361BD" fill-rule="nonzero"></path>
                <path d="M317.178231,249.937975 L302.591661,264.329109 L302.591661,236.082854 C302.591661,235.48481 302.100452,235 301.494514,235 C300.888577,235 300.397367,235.48481 300.397367,236.082854 L300.397367,264.329109 L285.810798,249.937975 C285.375493,249.570047 284.726603,249.594784 284.321351,249.994757 C283.916099,250.39473 283.891035,251.035166 284.26382,251.4648 L300.721026,267.707615 C300.772434,267.758836 300.829473,267.804236 300.891083,267.842972 C300.916072,267.861532 300.943832,267.876144 300.973369,267.886286 L301.083084,267.945843 L301.192799,267.978329 L301.286056,267.978329 C301.427183,268.007224 301.572817,268.007224 301.713944,267.978329 L301.807201,267.978329 L301.916916,267.945843 L302.026631,267.886286 C302.056168,267.876144 302.083928,267.861532 302.108917,267.842972 C302.170527,267.804236 302.227566,267.758836 302.278974,267.707615 L318.73618,251.4648 C319.108965,251.035166 319.083901,250.39473 318.678649,249.994757 C318.273397,249.594784 317.624507,249.570047 317.189202,249.937975 L317.178231,249.937975 Z" id="Path" stroke="#6361BD" stroke-width="3" fill="#6361BD" fill-rule="nonzero"></path>
                <path d="M317.90625,273 L285.09375,273 C284.489689,273 284,273.447715 284,274 C284,274.552285 284.489689,275 285.09375,275 L317.90625,275 C318.510311,275 319,274.552285 319,274 C319,273.447715 318.510311,273 317.90625,273 Z" id="Path" stroke="#6361BD" stroke-width="3" fill="#6361BD" fill-rule="nonzero"></path>
                <rect id="Rectangle" fill="#000000" fill-rule="nonzero" x="233" y="360" width="17" height="17"></rect>
                <rect id="Rectangle" fill="#000000" fill-rule="nonzero" x="233" y="114" width="17" height="241"></rect>
                <path d="M218,238.9 L218,335.8 L305,249.1 L392,162.4 L392,110.278 C391.971878,99.6426844 383.32741,91.0280247 372.655294,91 L366.411765,91 L305,152.2 L218,238.9 Z M305.263903,366.37819 L392,279.616393 L392,330.652744 L325.672396,397 L274.651163,397 L305.263903,366.37819 Z" id="Shape" fill="#FFFFFF" opacity="0.2"></path>
                <path d="M405,134.46875 L395.047619,134.46875 L395.047619,113.170937 C395.047619,97.0602736 382.170262,84 366.285238,84 L234.714762,84 C218.829738,84 205.952381,97.0602736 205.952381,113.170937 L205.952381,134.46875 L196,134.46875 L196,164.75 L205.952381,164.75 L205.952381,184.9375 L196,184.9375 L196,215.21875 L205.952381,215.21875 L205.952381,377.829062 C205.952381,393.939726 218.829738,407 234.714762,407 L366.285238,407 C382.170262,407 395.047619,393.939726 395.047619,377.829062 L395.047619,164.75 L405,164.75 L405,134.46875 Z M375.860577,377.919938 C375.860577,382.865897 371.883446,386.875389 366.977407,386.875389 L235.027401,386.875389 C230.121361,386.875389 226.144231,382.865897 226.144231,377.919938 L226.144231,114.086293 C226.144231,109.140333 230.121361,105.130841 235.027401,105.130841 L261.078045,105.130841 L261.078045,115.193146 L340.926763,115.193146 L340.926763,105.130841 L366.977407,105.130841 C371.883446,105.130841 375.860577,109.140333 375.860577,114.086293 L375.860577,377.919938 Z" id="Shape" fill="#000000" fill-rule="nonzero"></path>
                <rect id="Rectangle" fill="#000000" fill-rule="nonzero" x="218" y="94" width="163" height="304" rx="3.78"></rect>
                <path d="M302,98 L363.434118,98 C373.12489,98.0273836 380.974464,106.444976 381,116.837 L381,378.163 C380.974464,388.555024 373.12489,396.972616 363.434118,397 L302,397 L302,98 Z" id="Path" fill="#000000"></path>
                <path d="M294.36852,195.804095 C290.553821,195.231811 286.795428,193.719346 283.684548,191.49834 C282.192452,190.435527 279.771315,188.091889 278.673358,186.647554 C275.576554,182.573438 274,177.913413 274,172.79011 C274,168.620614 274.999423,164.873518 277.040498,161.385312 C278.194761,159.40957 279.334947,157.978861 281.164877,156.234758 C283.022959,154.463403 284.374291,153.482345 286.598359,152.310526 C287.457018,151.860874 288.400135,151.28859 288.709816,151.056952 C289.216565,150.661803 290.694585,149.694371 294.762658,147.119094 C297.63424,145.306862 298.267677,144.775456 299.562703,143.153985 C300.843654,141.532514 301.36448,140.197185 301.336327,138.698347 C301.322251,137.717289 301.829,138.453082 302.237215,139.992798 C302.772118,141.982166 302.307597,143.75352 300.674737,145.811017 C299.619009,147.13272 299.140412,148.181907 299.2671,148.876823 C299.534551,150.402913 300.942189,151.125081 302.589125,150.580049 C303.771541,150.1849 304.559818,149.367352 305.235484,147.786759 C307.318788,143.004101 309.599161,139.774785 312.569277,137.39027 C316.032066,134.610605 318.791037,133.466038 323.056179,133.070889 C324.632734,132.934631 327.039794,133.00276 327.265016,133.207148 C327.335398,133.275277 327.082024,133.479664 326.701961,133.670425 C325.941837,134.065573 325.955913,134.051947 324.266748,135.128386 C322.183444,136.463715 320.40982,138.453082 319.002182,141.041985 C317.369322,144.053288 317.172253,146.737572 318.453203,148.563429 C319.410397,149.939636 320.226827,150.375662 321.775229,150.389287 C322.760575,150.389287 323.140638,150.293907 325.026872,149.530862 C327.335398,148.590681 327.222787,148.631559 327.799919,148.536178 C328.391127,148.440797 329.601695,148.577055 329.897299,148.754191 C330.052139,148.863197 330.038063,148.9177 329.812841,149.08121 C329.066793,149.612616 327.25094,151.343094 326.701961,152.03801 C324.224519,155.144693 323.196943,158.128744 322.774652,163.524563 C322.605735,165.854576 322.394589,167.912072 322.267902,168.743246 C322.183444,169.247401 322.070833,171.073259 322.014527,172.79011 C321.930069,175.147375 321.817458,176.278316 321.592236,177.354755 C319.494855,187.083579 311.583931,194.346133 301.51932,195.81772 C299.773849,196.062985 296.071762,196.062985 294.36852,195.804095 Z" id="Path" fill="url(#radialGradient-1)" fill-rule="nonzero"></path>
                <path d="M301,223 C281.670034,223 266,238.670034 266,258 C266,277.329966 281.670034,293 301,293 C320.329966,293 336,277.329966 336,258 C335.978902,238.67878 320.32122,223.021098 301,223 Z M301,290.8125 C282.878157,290.8125 268.1875,276.121843 268.1875,258 C268.1875,239.878157 282.878157,225.1875 301,225.1875 C319.121843,225.1875 333.8125,239.878157 333.8125,258 C333.791405,276.113098 319.113098,290.791405 301,290.8125 L301,290.8125 Z" id="Shape" stroke="#6361BD" stroke-width="4" fill="#6361BD" fill-rule="nonzero"></path>
                <path d="M317.178231,249.937975 L302.591661,264.329109 L302.591661,236.082854 C302.591661,235.48481 302.100452,235 301.494514,235 C300.888577,235 300.397367,235.48481 300.397367,236.082854 L300.397367,264.329109 L285.810798,249.937975 C285.375493,249.570047 284.726603,249.594784 284.321351,249.994757 C283.916099,250.39473 283.891035,251.035166 284.26382,251.4648 L300.721026,267.707615 C300.772434,267.758836 300.829473,267.804236 300.891083,267.842972 C300.916072,267.861532 300.943832,267.876144 300.973369,267.886286 L301.083084,267.945843 L301.192799,267.978329 L301.286056,267.978329 C301.427183,268.007224 301.572817,268.007224 301.713944,267.978329 L301.807201,267.978329 L301.916916,267.945843 L302.026631,267.886286 C302.056168,267.876144 302.083928,267.861532 302.108917,267.842972 C302.170527,267.804236 302.227566,267.758836 302.278974,267.707615 L318.73618,251.4648 C319.108965,251.035166 319.083901,250.39473 318.678649,249.994757 C318.273397,249.594784 317.624507,249.570047 317.189202,249.937975 L317.178231,249.937975 Z" id="Path" stroke="#6361BD" stroke-width="3" fill="#6361BD" fill-rule="nonzero"></path>
                <path d="M317.90625,273 L285.09375,273 C284.489689,273 284,273.447715 284,274 C284,274.552285 284.489689,275 285.09375,275 L317.90625,275 C318.510311,275 319,274.552285 319,274 C319,273.447715 318.510311,273 317.90625,273 Z" id="Path" stroke="#6361BD" stroke-width="3" fill="#6361BD" fill-rule="nonzero"></path>
                <rect id="Rectangle" fill="#000000" fill-rule="nonzero" x="233" y="360" width="17" height="17"></rect>
                <rect id="Rectangle" fill="#000000" fill-rule="nonzero" x="233" y="114" width="17" height="241"></rect>
                <path d="M218,238.9 L218,335.8 L305,249.1 L392,162.4 L392,110.278 C391.971878,99.6426844 383.32741,91.0280247 372.655294,91 L366.411765,91 L305,152.2 L218,238.9 Z M305.263903,366.37819 L392,279.616393 L392,330.652744 L325.672396,397 L274.651163,397 L305.263903,366.37819 Z" id="Shape" fill="#FFFFFF" opacity="0.2"></path>
                <path d="M405,134.46875 L395.047619,134.46875 L395.047619,113.170937 C395.047619,97.0602736 382.170262,84 366.285238,84 L234.714762,84 C218.829738,84 205.952381,97.0602736 205.952381,113.170937 L205.952381,134.46875 L196,134.46875 L196,164.75 L205.952381,164.75 L205.952381,184.9375 L196,184.9375 L196,215.21875 L205.952381,215.21875 L205.952381,377.829062 C205.952381,393.939726 218.829738,407 234.714762,407 L366.285238,407 C382.170262,407 395.047619,393.939726 395.047619,377.829062 L395.047619,164.75 L405,164.75 L405,134.46875 Z M375.860577,377.919938 C375.860577,382.865897 371.883446,386.875389 366.977407,386.875389 L235.027401,386.875389 C230.121361,386.875389 226.144231,382.865897 226.144231,377.919938 L226.144231,114.086293 C226.144231,109.140333 230.121361,105.130841 235.027401,105.130841 L261.078045,105.130841 L261.078045,115.193146 L340.926763,115.193146 L340.926763,105.130841 L366.977407,105.130841 C371.883446,105.130841 375.860577,109.140333 375.860577,114.086293 L375.860577,377.919938 Z" id="Shape" fill="#000000" fill-rule="nonzero"></path>
                <text id="Import" font-family="CircularStd-Black, Circular Std" font-size="100" font-weight="700" line-spacing="92" fill="#FFFFFF">
                    <tspan x="148" y="543">Import</tspan>
                </text>
            </g>
            <g id="iconfinder_pause_3638408" transform="translate(196.000000, 84.000000)"></g>
            <g id="LELELEL" transform="translate(274.000000, 133.000000)"></g>
            <g id="iconfinder_ic_round_download_5760405" transform="translate(266.000000, 223.000000)"></g>
        </g>
    </g>
</svg>