<?xml version="1.0" encoding="UTF-8"?>
<svg width="601px" height="601px" viewBox="0 0 601 601" version="1.1" xmlns="http://www.w3.org/2000/svg" xmlns:xlink="http://www.w3.org/1999/xlink">
    <!-- Generator: Sketch 58 (84663) - https://sketch.com -->
    <title>Slice 1</title>
    <desc>Created with Sketch.</desc>
    <defs>
        <linearGradient x1="50%" y1="0%" x2="50%" y2="100%" id="radialGradient-1">
            <stop stop-color="#6361BD" offset="0%"></stop>
            <stop stop-color="#FF1E03" offset="100%"></stop>
        </linearGradient>
    </defs>
    <g id="Page-1" stroke="none" stroke-width="1" fill="none" fill-rule="evenodd">
        <g id="Rectangle">
            <rect fill="#D43800" x="0" y="0" width="601" height="601" rx="29"></rect>
            <g id="iconfinder_pause_3638408" stroke-width="1">
                <g transform="translate(153.000000, 96.000000)">
                    <rect id="Rectangle" fill="#000000" fill-rule="nonzero" x="13" y="6" width="97" height="181" rx="3.78"></rect>
                    <path d="M63,8 L99.5494118,8 C105.314808,8.01630195 109.984808,13.0274439 110,19.214 L110,174.786 C109.984808,180.972556 105.314808,185.983698 99.5494118,186 L63,186 L63,8 Z" id="Path" fill="#000000"></path>
                    <g id="LELELEL" transform="translate(37.000000, 65.000000)" fill="url(#radialGradient-1)" fill-rule="nonzero">
                        <path d="M17.8224548,55.8258618 C14.4845935,55.3171651 11.1959996,53.9727524 8.47397989,51.9985246 C7.16839578,51.0538022 5.04990081,48.970568 4.08918797,47.6867144 C1.3794851,44.0652783 0,39.9230337 0,35.368987 C0,31.6627681 0.874495018,28.3320158 2.66043555,25.2313882 C3.67041571,23.4751734 4.66807904,22.2034316 6.2692671,20.6531178 C7.89508882,19.0785804 9.07750462,18.2065289 11.023564,17.1649118 C11.7748907,16.7652215 12.6001184,16.2565248 12.8710886,16.0506238 C13.3144946,15.6993808 14.6077618,14.8394411 18.1673261,12.5503059 C20.6799596,10.939433 21.234217,10.4670718 22.3673655,9.02576445 C23.4881972,7.58445711 23.9439199,6.39749811 23.9192863,5.06519721 C23.9069694,4.1931457 24.3503754,4.84718433 24.7075635,6.21582072 C25.175603,7.98414738 24.7691476,9.55868481 23.3403952,11.3875706 C22.4166328,12.5624178 21.9978606,13.4950284 22.1087121,14.1127316 C22.3427319,15.4692561 23.574415,16.1111829 25.0154842,15.6267099 C26.0500981,15.2754669 26.7398406,14.5487573 27.3310485,13.1437854 C29.1539395,8.89253436 31.1492662,6.0220315 33.7481176,3.90246187 C36.7780581,1.43164928 39.192157,0.414255855 42.9241569,0.0630128886 C44.303642,-0.0581053758 46.4098201,0.00245375641 46.6068894,0.184131153 C46.6684735,0.244690285 46.4467706,0.426367682 46.1142161,0.595933252 C45.4491073,0.947176218 45.4614241,0.935064392 43.9834043,1.89189868 C42.1605133,3.07885767 40.6085926,4.84718433 39.3769095,7.14843135 C37.948157,9.825145 37.7757214,12.2111748 38.896553,13.8341595 C39.7340976,15.057454 40.4484738,15.4450325 41.8033252,15.4571443 C42.6655034,15.4571443 42.9980578,15.3723615 44.6485132,14.6940992 C46.6684735,13.8583832 46.5699389,13.8947187 47.074929,13.8099359 C47.5922359,13.7251531 48.6514834,13.8462714 48.9101368,14.0037251 C49.045622,14.1006197 49.0333051,14.149067 48.8362358,14.294409 C48.1834438,14.7667702 46.5945726,16.3049721 46.1142161,16.9226753 C43.9464538,19.6841717 43.0473252,22.3366617 42.6778202,27.132945 C42.5300183,29.2040673 42.3452658,31.0329531 42.2344143,31.7717745 C42.1605133,32.2199121 42.0619787,33.8428968 42.0127113,35.368987 C41.9388104,37.4643329 41.8402757,38.4696145 41.6432064,39.4264488 C39.8079986,48.0742929 32.8859394,54.5298964 24.0794051,55.8379736 C22.552118,56.0559865 19.3127914,56.0559865 17.8224548,55.8258618 Z" id="Path"></path>
                    </g>
                    <rect id="Rectangle" fill="#000000" fill-rule="nonzero" x="22" y="164" width="10" height="10"></rect>
                    <rect id="Rectangle" fill="#000000" fill-rule="nonzero" x="22" y="18" width="10" height="143"></rect>
                    <path d="M13,91.9666667 L13,149.6 L64.5,98.0333333 L116,46.4666667 L116,15.466 C115.983353,9.14042015 110.866226,4.01666828 104.548824,4 L100.852941,4 L64.5,40.4 L13,91.9666667 Z M64.6562184,167.787028 L116,116.183607 L116,146.53856 L76.7371082,186 L46.5348837,186 L64.6562184,167.787028 Z" id="Shape" fill="#FFFFFF" opacity="0.2"></path>
                    <path d="M124,30 L118.095238,30 L118.095238,17.34 C118.095238,7.76338244 110.455084,0 101.030476,0 L22.9695238,0 C13.5449161,0 5.9047619,7.76338244 5.9047619,17.34 L5.9047619,30 L0,30 L0,48 L5.9047619,48 L5.9047619,60 L0,60 L0,78 L5.9047619,78 L5.9047619,174.66 C5.9047619,184.236618 13.5449161,192 22.9695238,192 L101.030476,192 C110.455084,192 118.095238,184.236618 118.095238,174.66 L118.095238,48 L124,48 L124,30 Z M106.711538,174.714019 C106.711538,177.654032 104.351901,180.037383 101.441141,180.037383 L23.1550128,180.037383 C20.2442527,180.037383 17.8846154,177.654032 17.8846154,174.714019 L17.8846154,17.8841121 C17.8846154,14.9440991 20.2442527,12.5607477 23.1550128,12.5607477 L38.6108974,12.5607477 L38.6108974,18.5420561 L85.9852564,18.5420561 L85.9852564,12.5607477 L101.441141,12.5607477 C104.351901,12.5607477 106.711538,14.9440991 106.711538,17.8841121 L106.711538,174.714019 Z" id="Shape" fill="#000000" fill-rule="nonzero"></path>
                </g>
                <g>
                    <g>
                        <rect id="Rectangle" fill="#000000" fill-rule="nonzero" x="337" y="102" width="97" height="181" rx="3.78"></rect>
                        <path d="M387,104 L423.549412,104 C429.314808,104.016302 433.984808,109.027444 434,115.214 L434,270.786 C433.984808,276.972556 429.314808,281.983698 423.549412,282 L387,282 L387,104 Z" id="Path" fill="#000000"></path>
                        <g id="LELELEL" transform="translate(361.000000, 161.000000)" fill="url(#radialGradient-1)" fill-rule="nonzero">
                            <path d="M17.8224548,55.8258618 C14.4845935,55.3171651 11.1959996,53.9727524 8.47397989,51.9985246 C7.16839578,51.0538022 5.04990081,48.970568 4.08918797,47.6867144 C1.3794851,44.0652783 0,39.9230337 0,35.368987 C0,31.6627681 0.874495018,28.3320158 2.66043555,25.2313882 C3.67041571,23.4751734 4.66807904,22.2034316 6.2692671,20.6531178 C7.89508882,19.0785804 9.07750462,18.2065289 11.023564,17.1649118 C11.7748907,16.7652215 12.6001184,16.2565248 12.8710886,16.0506238 C13.3144946,15.6993808 14.6077618,14.8394411 18.1673261,12.5503059 C20.6799596,10.939433 21.234217,10.4670718 22.3673655,9.02576445 C23.4881972,7.58445711 23.9439199,6.39749811 23.9192863,5.06519721 C23.9069694,4.1931457 24.3503754,4.84718433 24.7075635,6.21582072 C25.175603,7.98414738 24.7691476,9.55868481 23.3403952,11.3875706 C22.4166328,12.5624178 21.9978606,13.4950284 22.1087121,14.1127316 C22.3427319,15.4692561 23.574415,16.1111829 25.0154842,15.6267099 C26.0500981,15.2754669 26.7398406,14.5487573 27.3310485,13.1437854 C29.1539395,8.89253436 31.1492662,6.0220315 33.7481176,3.90246187 C36.7780581,1.43164928 39.192157,0.414255855 42.9241569,0.0630128886 C44.303642,-0.0581053758 46.4098201,0.00245375641 46.6068894,0.184131153 C46.6684735,0.244690285 46.4467706,0.426367682 46.1142161,0.595933252 C45.4491073,0.947176218 45.4614241,0.935064392 43.9834043,1.89189868 C42.1605133,3.07885767 40.6085926,4.84718433 39.3769095,7.14843135 C37.948157,9.825145 37.7757214,12.2111748 38.896553,13.8341595 C39.7340976,15.057454 40.4484738,15.4450325 41.8033252,15.4571443 C42.6655034,15.4571443 42.9980578,15.3723615 44.6485132,14.6940992 C46.6684735,13.8583832 46.5699389,13.8947187 47.074929,13.8099359 C47.5922359,13.7251531 48.6514834,13.8462714 48.9101368,14.0037251 C49.045622,14.1006197 49.0333051,14.149067 48.8362358,14.294409 C48.1834438,14.7667702 46.5945726,16.3049721 46.1142161,16.9226753 C43.9464538,19.6841717 43.0473252,22.3366617 42.6778202,27.132945 C42.5300183,29.2040673 42.3452658,31.0329531 42.2344143,31.7717745 C42.1605133,32.2199121 42.0619787,33.8428968 42.0127113,35.368987 C41.9388104,37.4643329 41.8402757,38.4696145 41.6432064,39.4264488 C39.8079986,48.0742929 32.8859394,54.5298964 24.0794051,55.8379736 C22.552118,56.0559865 19.3127914,56.0559865 17.8224548,55.8258618 Z" id="Path"></path>
                        </g>
                        <rect id="Rectangle" fill="#000000" fill-rule="nonzero" x="346" y="260" width="10" height="10"></rect>
                        <rect id="Rectangle" fill="#000000" fill-rule="nonzero" x="346" y="114" width="10" height="143"></rect>
                        <path d="M337,187.966667 L337,245.6 L388.5,194.033333 L440,142.466667 L440,111.466 C439.983353,105.14042 434.866226,100.016668 428.548824,100 L424.852941,100 L388.5,136.4 L337,187.966667 Z M388.656218,263.787028 L440,212.183607 L440,242.53856 L400.737108,282 L370.534884,282 L388.656218,263.787028 Z" id="Shape" fill="#FFFFFF" opacity="0.2"></path>
                        <g id="Shape">
                            <path d="M448,126 L442.095238,126 L442.095238,113.34 C442.095238,103.763382 434.455084,96 425.030476,96 L346.969524,96 C337.544916,96 329.904762,103.763382 329.904762,113.34 L329.904762,126 L324,126 L324,144 L329.904762,144 L329.904762,156 L324,156 L324,174 L329.904762,174 L329.904762,270.66 C329.904762,280.236618 337.544916,288 346.969524,288 L425.030476,288 C434.455084,288 442.095238,280.236618 442.095238,270.66 L442.095238,144 L448,144 L448,126 Z M430.711538,270.714019 C430.711538,273.654032 428.351901,276.037383 425.441141,276.037383 L347.155013,276.037383 C344.244253,276.037383 341.884615,273.654032 341.884615,270.714019 L341.884615,113.884112 C341.884615,110.944099 344.244253,108.560748 347.155013,108.560748 L362.610897,108.560748 L362.610897,114.542056 L409.985256,114.542056 L409.985256,108.560748 L425.441141,108.560748 C428.351901,108.560748 430.711538,110.944099 430.711538,113.884112 L430.711538,270.714019 Z" fill="#000000" fill-rule="nonzero"></path>
                            <text id="Listen-together" font-family="CircularStd-Black, Circular Std" font-size="100" font-weight="700" line-spacing="92" fill="#FFFFFF">
                                <tspan x="54" y="461">Listen</tspan>
                                <tspan x="54" y="560.7">together</tspan>
                            </text>
                            <rect id="Rectangle" fill="#000000" fill-rule="evenodd" x="269" y="193" width="63" height="10"></rect>
                            <rect id="Rectangle-Copy-2" fill="#D43800" fill-rule="evenodd" x="0" y="0" width="601" height="601" rx="29"></rect>
                            <rect id="Rectangle" fill="#000000" fill-rule="nonzero" x="166" y="102" width="97" height="181" rx="3.78"></rect>
                            <path d="M216,104 L252.549412,104 C258.314808,104.016302 262.984808,109.027444 263,115.214 L263,270.786 C262.984808,276.972556 258.314808,281.983698 252.549412,282 L216,282 L216,104 Z" id="Path" fill="#000000" fill-rule="evenodd"></path>
                            <g id="LELELEL" stroke-width="1" fill-rule="evenodd" transform="translate(190.000000, 161.000000)" fill="url(#radialGradient-1)">
                                <path d="M17.8224548,55.8258618 C14.4845935,55.3171651 11.1959996,53.9727524 8.47397989,51.9985246 C7.16839578,51.0538022 5.04990081,48.970568 4.08918797,47.6867144 C1.3794851,44.0652783 0,39.9230337 0,35.368987 C0,31.6627681 0.874495018,28.3320158 2.66043555,25.2313882 C3.67041571,23.4751734 4.66807904,22.2034316 6.2692671,20.6531178 C7.89508882,19.0785804 9.07750462,18.2065289 11.023564,17.1649118 C11.7748907,16.7652215 12.6001184,16.2565248 12.8710886,16.0506238 C13.3144946,15.6993808 14.6077618,14.8394411 18.1673261,12.5503059 C20.6799596,10.939433 21.234217,10.4670718 22.3673655,9.02576445 C23.4881972,7.58445711 23.9439199,6.39749811 23.9192863,5.06519721 C23.9069694,4.1931457 24.3503754,4.84718433 24.7075635,6.21582072 C25.175603,7.98414738 24.7691476,9.55868481 23.3403952,11.3875706 C22.4166328,12.5624178 21.9978606,13.4950284 22.1087121,14.1127316 C22.3427319,15.4692561 23.574415,16.1111829 25.0154842,15.6267099 C26.0500981,15.2754669 26.7398406,14.5487573 27.3310485,13.1437854 C29.1539395,8.89253436 31.1492662,6.0220315 33.7481176,3.90246187 C36.7780581,1.43164928 39.192157,0.414255855 42.9241569,0.0630128886 C44.303642,-0.0581053758 46.4098201,0.00245375641 46.6068894,0.184131153 C46.6684735,0.244690285 46.4467706,0.426367682 46.1142161,0.595933252 C45.4491073,0.947176218 45.4614241,0.935064392 43.9834043,1.89189868 C42.1605133,3.07885767 40.6085926,4.84718433 39.3769095,7.14843135 C37.948157,9.825145 37.7757214,12.2111748 38.896553,13.8341595 C39.7340976,15.057454 40.4484738,15.4450325 41.8033252,15.4571443 C42.6655034,15.4571443 42.9980578,15.3723615 44.6485132,14.6940992 C46.6684735,13.8583832 46.5699389,13.8947187 47.074929,13.8099359 C47.5922359,13.7251531 48.6514834,13.8462714 48.9101368,14.0037251 C49.045622,14.1006197 49.0333051,14.149067 48.8362358,14.294409 C48.1834438,14.7667702 46.5945726,16.3049721 46.1142161,16.9226753 C43.9464538,19.6841717 43.0473252,22.3366617 42.6778202,27.132945 C42.5300183,29.2040673 42.3452658,31.0329531 42.2344143,31.7717745 C42.1605133,32.2199121 42.0619787,33.8428968 42.0127113,35.368987 C41.9388104,37.4643329 41.8402757,38.4696145 41.6432064,39.4264488 C39.8079986,48.0742929 32.8859394,54.5298964 24.0794051,55.8379736 C22.552118,56.0559865 19.3127914,56.0559865 17.8224548,55.8258618 Z" id="Path" fill-rule="nonzero"></path>
                            </g>
                            <rect id="Rectangle" fill="#000000" fill-rule="nonzero" x="175" y="260" width="10" height="10"></rect>
                            <rect id="Rectangle" fill="#000000" fill-rule="nonzero" x="175" y="114" width="10" height="143"></rect>
                            <path d="M166,187.966667 L166,245.6 L217.5,194.033333 L269,142.466667 L269,111.466 C268.983353,105.14042 263.866226,100.016668 257.548824,100 L253.852941,100 L217.5,136.4 L166,187.966667 Z M217.656218,263.787028 L269,212.183607 L269,242.53856 L229.737108,282 L199.534884,282 L217.656218,263.787028 Z" fill="#FFFFFF" fill-rule="evenodd" opacity="0.2"></path>
                            <path d="M277,126 L271.095238,126 L271.095238,113.34 C271.095238,103.763382 263.455084,96 254.030476,96 L175.969524,96 C166.544916,96 158.904762,103.763382 158.904762,113.34 L158.904762,126 L153,126 L153,144 L158.904762,144 L158.904762,156 L153,156 L153,174 L158.904762,174 L158.904762,270.66 C158.904762,280.236618 166.544916,288 175.969524,288 L254.030476,288 C263.455084,288 271.095238,280.236618 271.095238,270.66 L271.095238,144 L277,144 L277,126 Z M259.711538,270.714019 C259.711538,273.654032 257.351901,276.037383 254.441141,276.037383 L176.155013,276.037383 C173.244253,276.037383 170.884615,273.654032 170.884615,270.714019 L170.884615,113.884112 C170.884615,110.944099 173.244253,108.560748 176.155013,108.560748 L191.610897,108.560748 L191.610897,114.542056 L238.985256,114.542056 L238.985256,108.560748 L254.441141,108.560748 C257.351901,108.560748 259.711538,110.944099 259.711538,113.884112 L259.711538,270.714019 Z" fill="#000000" fill-rule="nonzero"></path>
                            <rect id="Rectangle" fill="#000000" fill-rule="nonzero" x="337" y="102" width="97" height="181" rx="3.78"></rect>
                            <path d="M387,104 L423.549412,104 C429.314808,104.016302 433.984808,109.027444 434,115.214 L434,270.786 C433.984808,276.972556 429.314808,281.983698 423.549412,282 L387,282 L387,104 Z" id="Path" fill="#000000" fill-rule="evenodd"></path>
                            <g id="LELELEL" stroke-width="1" fill-rule="evenodd" transform="translate(361.000000, 161.000000)" fill="url(#radialGradient-1)">
                                <path d="M17.8224548,55.8258618 C14.4845935,55.3171651 11.1959996,53.9727524 8.47397989,51.9985246 C7.16839578,51.0538022 5.04990081,48.970568 4.08918797,47.6867144 C1.3794851,44.0652783 0,39.9230337 0,35.368987 C0,31.6627681 0.874495018,28.3320158 2.66043555,25.2313882 C3.67041571,23.4751734 4.66807904,22.2034316 6.2692671,20.6531178 C7.89508882,19.0785804 9.07750462,18.2065289 11.023564,17.1649118 C11.7748907,16.7652215 12.6001184,16.2565248 12.8710886,16.0506238 C13.3144946,15.6993808 14.6077618,14.8394411 18.1673261,12.5503059 C20.6799596,10.939433 21.234217,10.4670718 22.3673655,9.02576445 C23.4881972,7.58445711 23.9439199,6.39749811 23.9192863,5.06519721 C23.9069694,4.1931457 24.3503754,4.84718433 24.7075635,6.21582072 C25.175603,7.98414738 24.7691476,9.55868481 23.3403952,11.3875706 C22.4166328,12.5624178 21.9978606,13.4950284 22.1087121,14.1127316 C22.3427319,15.4692561 23.574415,16.1111829 25.0154842,15.6267099 C26.0500981,15.2754669 26.7398406,14.5487573 27.3310485,13.1437854 C29.1539395,8.89253436 31.1492662,6.0220315 33.7481176,3.90246187 C36.7780581,1.43164928 39.192157,0.414255855 42.9241569,0.0630128886 C44.303642,-0.0581053758 46.4098201,0.00245375641 46.6068894,0.184131153 C46.6684735,0.244690285 46.4467706,0.426367682 46.1142161,0.595933252 C45.4491073,0.947176218 45.4614241,0.935064392 43.9834043,1.89189868 C42.1605133,3.07885767 40.6085926,4.84718433 39.3769095,7.14843135 C37.948157,9.825145 37.7757214,12.2111748 38.896553,13.8341595 C39.7340976,15.057454 40.4484738,15.4450325 41.8033252,15.4571443 C42.6655034,15.4571443 42.9980578,15.3723615 44.6485132,14.6940992 C46.6684735,13.8583832 46.5699389,13.8947187 47.074929,13.8099359 C47.5922359,13.7251531 48.6514834,13.8462714 48.9101368,14.0037251 C49.045622,14.1006197 49.0333051,14.149067 48.8362358,14.294409 C48.1834438,14.7667702 46.5945726,16.3049721 46.1142161,16.9226753 C43.9464538,19.6841717 43.0473252,22.3366617 42.6778202,27.132945 C42.5300183,29.2040673 42.3452658,31.0329531 42.2344143,31.7717745 C42.1605133,32.2199121 42.0619787,33.8428968 42.0127113,35.368987 C41.9388104,37.4643329 41.8402757,38.4696145 41.6432064,39.4264488 C39.8079986,48.0742929 32.8859394,54.5298964 24.0794051,55.8379736 C22.552118,56.0559865 19.3127914,56.0559865 17.8224548,55.8258618 Z" id="Path" fill-rule="nonzero"></path>
                            </g>
                            <rect id="Rectangle" fill="#000000" fill-rule="nonzero" x="346" y="260" width="10" height="10"></rect>
                            <rect id="Rectangle" fill="#000000" fill-rule="nonzero" x="346" y="114" width="10" height="143"></rect>
                            <path d="M337,187.966667 L337,245.6 L388.5,194.033333 L440,142.466667 L440,111.466 C439.983353,105.14042 434.866226,100.016668 428.548824,100 L424.852941,100 L388.5,136.4 L337,187.966667 Z M388.656218,263.787028 L440,212.183607 L440,242.53856 L400.737108,282 L370.534884,282 L388.656218,263.787028 Z" fill="#FFFFFF" fill-rule="evenodd" opacity="0.2"></path>
                            <path d="M448,126 L442.095238,126 L442.095238,113.34 C442.095238,103.763382 434.455084,96 425.030476,96 L346.969524,96 C337.544916,96 329.904762,103.763382 329.904762,113.34 L329.904762,126 L324,126 L324,144 L329.904762,144 L329.904762,156 L324,156 L324,174 L329.904762,174 L329.904762,270.66 C329.904762,280.236618 337.544916,288 346.969524,288 L425.030476,288 C434.455084,288 442.095238,280.236618 442.095238,270.66 L442.095238,144 L448,144 L448,126 Z M430.711538,270.714019 C430.711538,273.654032 428.351901,276.037383 425.441141,276.037383 L347.155013,276.037383 C344.244253,276.037383 341.884615,273.654032 341.884615,270.714019 L341.884615,113.884112 C341.884615,110.944099 344.244253,108.560748 347.155013,108.560748 L362.610897,108.560748 L362.610897,114.542056 L409.985256,114.542056 L409.985256,108.560748 L425.441141,108.560748 C428.351901,108.560748 430.711538,110.944099 430.711538,113.884112 L430.711538,270.714019 Z" fill="#000000" fill-rule="nonzero"></path>
                            <text id="Listen-together-Copy" font-family="CircularStd-Black, Circular Std" font-size="100" font-weight="700" line-spacing="92" fill="#FFFFFF">
                                <tspan x="54" y="461">Listen</tspan>
                                <tspan x="54" y="560.7">together</tspan>
                            </text>
                            <rect id="Rectangle-Copy" fill="#000000" fill-rule="evenodd" x="269" y="193" width="63" height="10"></rect>
                        </g>
                    </g>
                    <g id="iconfinder_pause_3638408-copy-2" transform="translate(153.000000, 96.000000)"></g>
                    <g id="iconfinder_pause_3638408-copy" transform="translate(324.000000, 96.000000)"></g>
                </g>
            </g>
        </g>
    </g>
</svg>