<?xml version="1.0" encoding="UTF-8"?>
<svg width="602px" height="602px" viewBox="0 0 602 602" version="1.1" xmlns="http://www.w3.org/2000/svg" xmlns:xlink="http://www.w3.org/1999/xlink">
    <!-- Generator: Sketch 58 (84663) - https://sketch.com -->
    <title>Rectangle</title>
    <desc>Created with Sketch.</desc>
    <g id="Page-1" stroke="none" stroke-width="1" fill="none" fill-rule="evenodd">
        <g id="Rectangle" transform="translate(-17.860855, -293.722663)">
            <g transform="translate(1.000000, 1.000000)">
                <rect fill="#2B2B2D" fill-rule="evenodd" x="17.7436688" y="293.0617" width="601" height="601" rx="29"></rect>
                <path d="M65.9478383,238.364313 C98.9516338,224.548085 141.453532,222.94599 193.453532,233.558027 C271.453532,250.084416 349.453532,292.667749 427.453532,309.194138 C505.453532,325.112193 583.453532,314.973304 661.453532,287.598304 C739.453532,260.223304 772.524581,219.622332 850.524581,240.913998 C850.754121,240.976656 851.183939,241.074424 851.814034,241.207303 C859.557564,242.840298 865.530766,249.016665 866.903961,256.810461 C868.365546,265.105928 865.930389,273.612658 860.300558,279.878119 L847.499871,294.124054 C846.699336,295.014972 845.88286,295.891435 845.050837,296.75302 L462.270931,693.133217 L462.270931,693.133217 L229.343927,468.198223 L106.631863,349.69656 L54.3799749,299.237499 L52.6779725,297.724608 C50.3633375,295.667155 48.3803364,293.264574 46.7990835,290.601815 L44.4129752,286.583715 C43.0846301,283.2691 42.3336341,280.52181 42.1599872,278.341846 C41.8995169,275.071899 41.9634592,277.266239 42.054032,269.492118 C42.1107953,264.619975 45.026184,259.431648 50.8001982,253.927137 C51.797723,252.976172 52.7754822,252.004687 53.732849,251.013305 L65.9478383,238.364313 Z" id="Path" fill="#FFDEB7" fill-rule="nonzero" transform="translate(455.597158, 459.888090) rotate(-134.000000) translate(-455.597158, -459.888090) "></path>
                <g id="flame" transform="translate(379.743669, 311.061700)" fill-rule="evenodd" stroke-width="1">
                    <g fill="#ED1C24">
                        <g id="Shape" fill-rule="nonzero">
                            <path d="M206.831967,144.229054 L205.714053,124.214687 L193.542029,140.106027 C192.572874,141.371064 190.509526,143.608938 187.87536,145.648376 C188.916177,142.18664 189.845301,138.238734 190.459611,133.884031 C192.585724,118.803803 191.261721,95.6585942 172.8873,71.0325488 L165.177545,60.6999283 L160.125679,72.5719247 C154.298389,86.2660697 144.869754,93.1364583 136.106827,90.0740783 C129.360791,87.7176377 123.877475,79.9676761 121.064403,68.8100531 C118.440615,58.4030187 116.915468,40.0897538 124.556032,11.9434337 L127.798083,0 L115.767406,2.72057281 C75.1849367,11.8972971 47.838535,40.8264515 36.6831126,86.3796751 C31.9940002,105.52836 31.1108379,123.669977 31.2422991,135.940336 C21.6535385,128.158625 16.8650888,121.3309 16.7395582,121.150322 L7.60596974,107.680411 L3.44566738,123.452192 C1.15893431,132.120918 0,141.088787 0,150.106762 C0,206.965444 45.7396036,253.293564 102.222948,253.983629 C102.647479,253.994543 103.072998,254 103.5,254 C103.927002,254 104.352521,253.994543 104.777052,253.983629 C161.26089,253.293564 207,206.965444 207,150.106762 C207,148.204246 206.943659,146.226323 206.831967,144.229054 Z M103.500494,239.104318 C84.3565797,239.104318 68.7823806,223.470947 68.7823806,204.254792 C68.7823806,170.719913 84.5809531,155.697231 96.895804,149.080842 C95.3266715,157.594786 96.7178871,165.662247 99.3317899,171.668938 C103.227687,180.620932 110.179316,186.484749 117.928115,187.353904 C120.971985,187.694223 126.066848,187.430798 131.407336,183.53002 C135.78954,189.48363 138.218113,196.746428 138.218113,204.254792 C138.218113,223.471442 122.64342,239.104318 103.500494,239.104318 Z M147.332428,227.441673 C150.984183,220.513737 153.056921,212.622886 153.056921,204.254792 C153.056921,190.152363 147.057644,176.657151 136.598076,167.230396 L130.513301,161.747082 L125.66604,168.357519 C124.431984,170.040761 121.997481,172.827811 119.57731,172.551487 C117.657779,172.336183 114.85805,170.136011 112.930611,165.706399 C110.26531,159.583126 109.724639,149.902371 116.196879,141.098709 L126.467657,127.127248 L109.304556,129.286243 C108.72583,129.35917 94.9742963,131.187271 81.3384081,141.474747 C58.6979224,158.555222 53.9450562,185.042111 53.9450562,204.254792 C53.9450562,212.62487 56.0182884,220.51721 59.6720202,227.446138 C32.9162054,212.107445 14.840784,183.187221 14.840784,150.106265 C14.840784,147.28449 14.9732336,144.469163 15.236156,141.670704 C20.2400835,146.429722 27.0236794,151.972566 35.6600875,157.116056 L48.5526757,164.789123 L46.8145213,149.842344 C46.7809147,149.55213 43.5309565,120.483573 51.1878304,89.5571493 C59.9428501,54.191191 78.7694786,31.0846776 107.233795,20.7019517 C103.264259,40.3779836 103.054712,58.0855193 106.680768,72.4652647 C110.74025,88.5644675 119.689003,100.110531 131.232384,104.141781 C139.256954,106.944209 147.904729,105.902414 155.586313,101.208881 C160.008055,98.5071591 164.008232,94.6619441 167.446981,89.8478599 C174.875527,103.163486 177.701943,117.0139 175.856049,131.15056 C174.109988,144.522741 168.627166,153.258935 168.5901,153.317474 L162.242896,163.09199 L173.747729,164.755885 C179.539928,165.59329 185.588627,164.314858 191.496474,161.041638 C188.007315,189.487599 171.091817,213.818965 147.332428,227.441673 Z"></path>
                        </g>
                        <polygon id="Path-2" fill-rule="nonzero" points="10.3995215 127 14.840784 191.077484 43.7549809 221.604691 77.0156531 239.104318 121.215554 245.603226 164.173548 227.446138 187.597619 194.09258 199.175211 159.048432 191.496474 152.907334 180.008831 159.048432 182.83891 114.72168 172.334928 86.686569 164.173548 80.9252928 155.191967 92.6551972 138.218113 98.5211183 121.215554 86.686569 110.487179 48.2586823 115.982908 9.87536622 93.6440548 20.7019517 64.9176977 40.4083862 51.0226525 69.4511871 43.7549809 102.080978 40.667623 133.31163 40.667623 152.907334"></polygon>
                    </g>
                    <g transform="translate(10.693727, 53.554217)" fill="#FA6400">
                        <g id="Shape" fill-rule="nonzero">
                            <path d="M163.328564,113.819314 L162.445783,98.0248436 L152.833927,110.5656 C152.068616,111.563912 150.439257,113.329945 148.35914,114.939381 C149.18104,112.207529 149.91474,109.092013 150.39984,105.65547 C152.078763,93.7548086 151.033241,75.4896135 136.52355,56.0558066 L130.435405,47.9017507 L126.446108,57.2706153 C121.844484,68.0774406 114.398994,73.4992533 107.479192,71.0825557 C102.152064,69.222955 97.8220651,63.1070215 95.6006724,54.3019094 C93.5287516,46.0891292 92.3243914,31.6370948 98.3579001,9.42523984 L100.918044,0 L91.4178039,2.14695806 C59.3711308,9.38883085 37.7765553,32.2184648 28.9674764,68.167093 C25.2646348,83.2784047 24.5672299,97.5949821 24.6710406,107.278217 C17.0991042,101.137228 13.3178192,95.7490836 13.2186917,95.6065793 L6.00619013,84.97671 L2.72093291,97.4231156 C0.915173216,104.264098 0,111.341151 0,118.457746 C0,163.328151 36.1190966,199.888295 80.7221805,200.432864 C81.0574191,200.441477 81.3934375,200.445783 81.7306273,200.445783 C82.0678171,200.445783 82.4038355,200.441477 82.7390741,200.432864 C127.342548,199.888295 163.461255,163.328151 163.461255,118.457746 C163.461255,116.956363 163.416764,115.395472 163.328564,113.819314 Z M81.7310176,188.690757 C66.6136828,188.690757 54.3152379,176.353578 54.3152379,161.189023 C54.3152379,134.724751 66.7908634,122.869502 76.5155058,117.648134 C75.2764121,124.36697 76.3750105,130.73346 78.4391256,135.47368 C81.5155907,142.538206 87.005069,147.165675 93.1240462,147.851575 C95.5276927,148.12014 99.5509429,147.912256 103.768155,144.833932 C107.228641,149.532262 109.146407,155.263748 109.146407,161.189023 C109.146407,176.35397 96.8475718,188.690757 81.7310176,188.690757 Z M116.343689,179.487103 C119.227362,174.019877 120.864137,167.792759 120.864137,161.189023 C120.864137,150.059997 116.126701,139.410161 107.867116,131.970975 L103.062164,127.643782 L99.2344372,132.860451 C98.2599434,134.188794 96.3374943,136.388212 94.4263632,136.170149 C92.9105707,136.000241 90.699715,134.263961 89.1776784,130.768303 C87.0729754,125.936081 86.6460249,118.29645 91.756945,111.348981 L99.8674485,100.32331 L86.3142986,102.027096 C85.8572978,102.084646 74.9981528,103.527304 64.2303297,111.645734 C46.3518649,125.124904 42.5986791,146.027208 42.5986791,161.189023 C42.5986791,167.794325 44.2358439,174.022617 47.1210787,179.490627 C25.9928707,167.385996 11.7192907,144.563409 11.7192907,118.457354 C11.7192907,116.230531 11.8238819,114.008797 12.0315033,111.800375 C15.9829442,115.555985 21.339732,119.930158 28.1596263,123.989177 L38.3404893,130.044428 L36.9679246,118.249079 C36.9413865,118.020054 34.3749988,95.0804103 40.4213864,70.6746178 C47.3349444,42.7653375 62.2017285,24.5306793 84.6790853,16.3370824 C81.5444703,31.8645533 81.378998,45.8385725 84.2423778,57.1864438 C87.4480207,69.8912364 94.5145629,79.0028889 103.63,82.1841766 C109.966746,84.3957312 116.795616,83.5735919 122.861517,79.8696587 C126.353225,77.7375773 129.512035,74.7031005 132.227505,70.904034 C138.09359,81.4121488 140.325519,92.342295 138.867877,103.498334 C137.489068,114.051079 133.159459,120.945304 133.130189,120.991501 L128.118007,128.705125 L137.203003,130.018198 C141.776918,130.679042 146.55338,129.670159 151.218618,127.087076 C148.463341,149.535394 135.105715,168.736653 116.343689,179.487103 Z"></path>
                        </g>
                        <polygon id="Path-2" fill-rule="nonzero" points="8.40221402 100.022367 11.9064717 150.557853 34.7204349 174.633505 60.9638664 188.434799 95.8385999 193.560241 129.73344 179.240433 148.215568 152.935745 157.350554 125.297752 151.291854 120.4545 142.227841 125.297752 144.460838 90.3389206 136.172956 68.2286901 129.73344 63.6849897 122.646767 72.9359212 109.254008 77.5621511 95.8385999 68.2286901 87.3736662 37.9220706 91.7099224 7.65060241 74.0840559 16.1891205 51.4183028 31.7308393 40.454794 54.6357969 34.7204349 80.3696777 32.2844388 105.00011 32.2844388 120.4545"></polygon>
                    </g>
                    <g transform="translate(28.261993, 127.000000)" fill="#F7B500">
                        <g id="Shape" fill-rule="nonzero">
                            <path d="M110.666551,72.1145271 L110.068405,62.1073436 L103.555698,70.0530137 C103.037146,70.6855319 101.933141,71.8044692 100.523717,72.8241878 C101.080611,71.0933201 101.577744,69.1193671 101.906434,66.9420156 C103.044022,59.4019016 102.335607,47.8292971 92.5042748,35.5162744 L88.3791293,30.3499642 L85.6761012,36.2859623 C82.5581786,43.1330349 77.5133372,46.5682292 72.8246861,45.0370391 C69.2151834,43.8588188 66.2813058,39.9838381 64.7761566,34.4050265 C63.372285,29.2015094 62.5562465,20.0448769 66.6443716,5.97171684 L68.3790482,0 L61.9419699,1.3602864 C40.2281027,5.94864856 25.5962641,20.4132258 19.6274957,43.1898375 C17.118561,52.7641801 16.6460203,61.8349887 16.7163593,67.9701682 C11.5858417,64.0793124 9.02375601,60.6654499 8.95659019,60.5751609 L4.06961481,53.8402056 L1.84362277,61.7260961 C0.620094002,66.0604589 0,70.5443935 0,75.0533809 C0,103.482722 24.4732196,126.646782 54.6949354,126.991815 C54.922083,126.997271 55.1497591,127 55.3782288,127 C55.6066985,127 55.8343746,126.997271 56.0615222,126.991815 C86.2835023,126.646782 110.756458,103.482722 110.756458,75.0533809 C110.756458,74.102123 110.726312,73.1131617 110.666551,72.1145271 Z M55.3784932,119.552159 C45.1354393,119.552159 36.8023808,111.735473 36.8023808,102.127396 C36.8023808,85.3599565 45.2554915,77.8486157 51.8446184,74.540421 C51.0050456,78.7973929 51.749423,82.8311233 53.1480057,85.834469 C55.2325264,90.3104662 58.9520327,93.2423744 63.0980687,93.676952 C64.7267077,93.8471117 67.4527417,93.7153989 70.3101982,91.7650102 C72.6549202,94.7418149 73.9543411,98.3732142 73.9543411,102.127396 C73.9543411,111.735721 65.6210183,119.552159 55.3784932,119.552159 Z M78.8310039,113.720836 C80.7848949,110.256869 81.8939243,106.311443 81.8939243,102.127396 C81.8939243,95.0761814 78.6839794,88.3285754 73.0875316,83.615198 L69.8318398,80.8735411 L67.2382869,84.1787593 C66.577999,85.0203807 65.275405,86.4139054 63.9804797,86.2757435 C62.9534241,86.1680915 61.4554144,85.0680057 60.4241279,82.8531995 C58.9980441,79.7915631 58.7087552,74.9511857 62.1717618,70.5493546 L67.6671964,63.5636239 L58.4839874,64.6431216 C58.1743373,64.6795848 50.8165054,65.5936355 43.5205505,70.7373735 C31.4066374,79.2776109 28.8635909,92.5210557 28.8635909,102.127396 C28.8635909,106.312435 29.9728849,110.258605 31.9278337,113.723069 C17.6119918,106.053722 7.94064086,91.5936103 7.94064086,75.0531326 C7.94064086,73.6422449 8.01150877,72.2345815 8.1521868,70.8353521 C10.829565,73.2148608 14.4591642,75.9862831 19.0801206,78.5580281 L25.9783689,82.3945616 L25.0483601,74.921172 C25.0303787,74.7760649 23.2914712,60.2417867 27.3883225,44.7785746 C32.0727427,27.0955955 42.146031,15.5423388 57.3760158,10.3509759 C55.2520943,20.1889918 55.1399753,29.0427597 57.0801158,36.2326324 C59.2521635,44.2822338 64.0402412,50.0552655 70.216589,52.0708905 C74.5101783,53.4721045 79.1372165,52.9512071 83.2472893,50.6044403 C85.6131662,49.2535795 87.753482,47.330972 89.593403,44.92393 C93.5680865,51.5817431 95.0803752,58.5069502 94.0927202,65.5752802 C93.1584805,72.2613704 90.2248673,76.6294673 90.2050349,76.658737 L86.8089297,81.545995 L92.9646518,82.3779425 C96.0637993,82.7966451 99.3001876,82.1574292 102.461213,80.5208192 C100.59432,94.7437994 91.5435921,106.909482 78.8310039,113.720836 Z"></path>
                        </g>
                        <polygon id="Path-2" fill-rule="nonzero" points="5.34686347 63.130492 7.71897638 95.1570963 23.1622745 110.414917 40.9270589 119.161416 64.5345708 122.409639 87.4787702 113.334534 99.9897493 96.6640729 106.173432 79.1486371 102.072158 76.0792513 95.9365184 79.1486371 97.4480856 56.9936577 91.8378272 42.9814129 87.4787702 40.1018661 82.6816377 45.9645964 73.6157703 48.8964458 64.5345708 42.9814129 58.8044619 23.7747487 61.7397738 4.59036145 49.8084179 10.0016034 34.4654466 19.8510877 27.0439946 34.3669867 23.1622745 50.6757013 21.5132925 66.2851114 21.5132925 76.0792513"></polygon>
                    </g>
                </g>
                <text id="Most-heared-Songs" font-family="CircularStd-Black, Circular Std" font-size="100" font-weight="700" line-spacing="92" fill="#FFFFFF">
                    <tspan x="64.7436688" y="665.0617">Most</tspan>
                    <tspan x="64.7436688" y="764.7617">heared </tspan>
                    <tspan x="64.7436688" y="864.4617">Songs</tspan>
                </text>
                <rect id="Rectangle-Copy" fill="#2B2B2D" fill-rule="evenodd" x="17.7436688" y="293.0617" width="601" height="601" rx="29"></rect>
                <path d="M65.9478383,238.364313 C98.9516338,224.548085 141.453532,222.94599 193.453532,233.558027 C271.453532,250.084416 349.453532,292.667749 427.453532,309.194138 C505.453532,325.112193 583.453532,314.973304 661.453532,287.598304 C739.453532,260.223304 772.524581,219.622332 850.524581,240.913998 C850.754121,240.976656 851.183939,241.074424 851.814034,241.207303 C859.557564,242.840298 865.530766,249.016665 866.903961,256.810461 C868.365546,265.105928 865.930389,273.612658 860.300558,279.878119 L847.499871,294.124054 C846.699336,295.014972 845.88286,295.891435 845.050837,296.75302 L462.270931,693.133217 L462.270931,693.133217 L229.343927,468.198223 L106.631863,349.69656 L54.3799749,299.237499 L52.6779725,297.724608 C50.3633375,295.667155 48.3803364,293.264574 46.7990835,290.601815 L44.4129752,286.583715 C43.0846301,283.2691 42.3336341,280.52181 42.1599872,278.341846 C41.8995169,275.071899 41.9634592,277.266239 42.054032,269.492118 C42.1107953,264.619975 45.026184,259.431648 50.8001982,253.927137 C51.797723,252.976172 52.7754822,252.004687 53.732849,251.013305 L65.9478383,238.364313 Z" id="Path" fill="#FFDEB7" fill-rule="nonzero" transform="translate(455.597158, 459.888090) rotate(-134.000000) translate(-455.597158, -459.888090) "></path>
                <g id="flame" transform="translate(379.743669, 311.061700)" fill-rule="evenodd" stroke-width="1">
                    <g fill="#ED1C24">
                        <g id="Shape" fill-rule="nonzero">
                            <path d="M206.831967,144.229054 L205.714053,124.214687 L193.542029,140.106027 C192.572874,141.371064 190.509526,143.608938 187.87536,145.648376 C188.916177,142.18664 189.845301,138.238734 190.459611,133.884031 C192.585724,118.803803 191.261721,95.6585942 172.8873,71.0325488 L165.177545,60.6999283 L160.125679,72.5719247 C154.298389,86.2660697 144.869754,93.1364583 136.106827,90.0740783 C129.360791,87.7176377 123.877475,79.9676761 121.064403,68.8100531 C118.440615,58.4030187 116.915468,40.0897538 124.556032,11.9434337 L127.798083,0 L115.767406,2.72057281 C75.1849367,11.8972971 47.838535,40.8264515 36.6831126,86.3796751 C31.9940002,105.52836 31.1108379,123.669977 31.2422991,135.940336 C21.6535385,128.158625 16.8650888,121.3309 16.7395582,121.150322 L7.60596974,107.680411 L3.44566738,123.452192 C1.15893431,132.120918 0,141.088787 0,150.106762 C0,206.965444 45.7396036,253.293564 102.222948,253.983629 C102.647479,253.994543 103.072998,254 103.5,254 C103.927002,254 104.352521,253.994543 104.777052,253.983629 C161.26089,253.293564 207,206.965444 207,150.106762 C207,148.204246 206.943659,146.226323 206.831967,144.229054 Z M103.500494,239.104318 C84.3565797,239.104318 68.7823806,223.470947 68.7823806,204.254792 C68.7823806,170.719913 84.5809531,155.697231 96.895804,149.080842 C95.3266715,157.594786 96.7178871,165.662247 99.3317899,171.668938 C103.227687,180.620932 110.179316,186.484749 117.928115,187.353904 C120.971985,187.694223 126.066848,187.430798 131.407336,183.53002 C135.78954,189.48363 138.218113,196.746428 138.218113,204.254792 C138.218113,223.471442 122.64342,239.104318 103.500494,239.104318 Z M147.332428,227.441673 C150.984183,220.513737 153.056921,212.622886 153.056921,204.254792 C153.056921,190.152363 147.057644,176.657151 136.598076,167.230396 L130.513301,161.747082 L125.66604,168.357519 C124.431984,170.040761 121.997481,172.827811 119.57731,172.551487 C117.657779,172.336183 114.85805,170.136011 112.930611,165.706399 C110.26531,159.583126 109.724639,149.902371 116.196879,141.098709 L126.467657,127.127248 L109.304556,129.286243 C108.72583,129.35917 94.9742963,131.187271 81.3384081,141.474747 C58.6979224,158.555222 53.9450562,185.042111 53.9450562,204.254792 C53.9450562,212.62487 56.0182884,220.51721 59.6720202,227.446138 C32.9162054,212.107445 14.840784,183.187221 14.840784,150.106265 C14.840784,147.28449 14.9732336,144.469163 15.236156,141.670704 C20.2400835,146.429722 27.0236794,151.972566 35.6600875,157.116056 L48.5526757,164.789123 L46.8145213,149.842344 C46.7809147,149.55213 43.5309565,120.483573 51.1878304,89.5571493 C59.9428501,54.191191 78.7694786,31.0846776 107.233795,20.7019517 C103.264259,40.3779836 103.054712,58.0855193 106.680768,72.4652647 C110.74025,88.5644675 119.689003,100.110531 131.232384,104.141781 C139.256954,106.944209 147.904729,105.902414 155.586313,101.208881 C160.008055,98.5071591 164.008232,94.6619441 167.446981,89.8478599 C174.875527,103.163486 177.701943,117.0139 175.856049,131.15056 C174.109988,144.522741 168.627166,153.258935 168.5901,153.317474 L162.242896,163.09199 L173.747729,164.755885 C179.539928,165.59329 185.588627,164.314858 191.496474,161.041638 C188.007315,189.487599 171.091817,213.818965 147.332428,227.441673 Z"></path>
                        </g>
                        <polygon id="Path-2" fill-rule="nonzero" points="10.3995215 127 14.840784 191.077484 43.7549809 221.604691 77.0156531 239.104318 121.215554 245.603226 164.173548 227.446138 187.597619 194.09258 199.175211 159.048432 191.496474 152.907334 180.008831 159.048432 182.83891 114.72168 172.334928 86.686569 164.173548 80.9252928 155.191967 92.6551972 138.218113 98.5211183 121.215554 86.686569 110.487179 48.2586823 115.982908 9.87536622 93.6440548 20.7019517 64.9176977 40.4083862 51.0226525 69.4511871 43.7549809 102.080978 40.667623 133.31163 40.667623 152.907334"></polygon>
                    </g>
                    <g transform="translate(10.693727, 53.554217)" fill="#FA6400">
                        <g id="Shape" fill-rule="nonzero">
                            <path d="M163.328564,113.819314 L162.445783,98.0248436 L152.833927,110.5656 C152.068616,111.563912 150.439257,113.329945 148.35914,114.939381 C149.18104,112.207529 149.91474,109.092013 150.39984,105.65547 C152.078763,93.7548086 151.033241,75.4896135 136.52355,56.0558066 L130.435405,47.9017507 L126.446108,57.2706153 C121.844484,68.0774406 114.398994,73.4992533 107.479192,71.0825557 C102.152064,69.222955 97.8220651,63.1070215 95.6006724,54.3019094 C93.5287516,46.0891292 92.3243914,31.6370948 98.3579001,9.42523984 L100.918044,0 L91.4178039,2.14695806 C59.3711308,9.38883085 37.7765553,32.2184648 28.9674764,68.167093 C25.2646348,83.2784047 24.5672299,97.5949821 24.6710406,107.278217 C17.0991042,101.137228 13.3178192,95.7490836 13.2186917,95.6065793 L6.00619013,84.97671 L2.72093291,97.4231156 C0.915173216,104.264098 0,111.341151 0,118.457746 C0,163.328151 36.1190966,199.888295 80.7221805,200.432864 C81.0574191,200.441477 81.3934375,200.445783 81.7306273,200.445783 C82.0678171,200.445783 82.4038355,200.441477 82.7390741,200.432864 C127.342548,199.888295 163.461255,163.328151 163.461255,118.457746 C163.461255,116.956363 163.416764,115.395472 163.328564,113.819314 Z M81.7310176,188.690757 C66.6136828,188.690757 54.3152379,176.353578 54.3152379,161.189023 C54.3152379,134.724751 66.7908634,122.869502 76.5155058,117.648134 C75.2764121,124.36697 76.3750105,130.73346 78.4391256,135.47368 C81.5155907,142.538206 87.005069,147.165675 93.1240462,147.851575 C95.5276927,148.12014 99.5509429,147.912256 103.768155,144.833932 C107.228641,149.532262 109.146407,155.263748 109.146407,161.189023 C109.146407,176.35397 96.8475718,188.690757 81.7310176,188.690757 Z M116.343689,179.487103 C119.227362,174.019877 120.864137,167.792759 120.864137,161.189023 C120.864137,150.059997 116.126701,139.410161 107.867116,131.970975 L103.062164,127.643782 L99.2344372,132.860451 C98.2599434,134.188794 96.3374943,136.388212 94.4263632,136.170149 C92.9105707,136.000241 90.699715,134.263961 89.1776784,130.768303 C87.0729754,125.936081 86.6460249,118.29645 91.756945,111.348981 L99.8674485,100.32331 L86.3142986,102.027096 C85.8572978,102.084646 74.9981528,103.527304 64.2303297,111.645734 C46.3518649,125.124904 42.5986791,146.027208 42.5986791,161.189023 C42.5986791,167.794325 44.2358439,174.022617 47.1210787,179.490627 C25.9928707,167.385996 11.7192907,144.563409 11.7192907,118.457354 C11.7192907,116.230531 11.8238819,114.008797 12.0315033,111.800375 C15.9829442,115.555985 21.339732,119.930158 28.1596263,123.989177 L38.3404893,130.044428 L36.9679246,118.249079 C36.9413865,118.020054 34.3749988,95.0804103 40.4213864,70.6746178 C47.3349444,42.7653375 62.2017285,24.5306793 84.6790853,16.3370824 C81.5444703,31.8645533 81.378998,45.8385725 84.2423778,57.1864438 C87.4480207,69.8912364 94.5145629,79.0028889 103.63,82.1841766 C109.966746,84.3957312 116.795616,83.5735919 122.861517,79.8696587 C126.353225,77.7375773 129.512035,74.7031005 132.227505,70.904034 C138.09359,81.4121488 140.325519,92.342295 138.867877,103.498334 C137.489068,114.051079 133.159459,120.945304 133.130189,120.991501 L128.118007,128.705125 L137.203003,130.018198 C141.776918,130.679042 146.55338,129.670159 151.218618,127.087076 C148.463341,149.535394 135.105715,168.736653 116.343689,179.487103 Z"></path>
                        </g>
                        <polygon id="Path-2" fill-rule="nonzero" points="8.40221402 100.022367 11.9064717 150.557853 34.7204349 174.633505 60.9638664 188.434799 95.8385999 193.560241 129.73344 179.240433 148.215568 152.935745 157.350554 125.297752 151.291854 120.4545 142.227841 125.297752 144.460838 90.3389206 136.172956 68.2286901 129.73344 63.6849897 122.646767 72.9359212 109.254008 77.5621511 95.8385999 68.2286901 87.3736662 37.9220706 91.7099224 7.65060241 74.0840559 16.1891205 51.4183028 31.7308393 40.454794 54.6357969 34.7204349 80.3696777 32.2844388 105.00011 32.2844388 120.4545"></polygon>
                    </g>
                    <g transform="translate(28.261993, 127.000000)" fill="#F7B500">
                        <g id="Shape" fill-rule="nonzero">
                            <path d="M110.666551,72.1145271 L110.068405,62.1073436 L103.555698,70.0530137 C103.037146,70.6855319 101.933141,71.8044692 100.523717,72.8241878 C101.080611,71.0933201 101.577744,69.1193671 101.906434,66.9420156 C103.044022,59.4019016 102.335607,47.8292971 92.5042748,35.5162744 L88.3791293,30.3499642 L85.6761012,36.2859623 C82.5581786,43.1330349 77.5133372,46.5682292 72.8246861,45.0370391 C69.2151834,43.8588188 66.2813058,39.9838381 64.7761566,34.4050265 C63.372285,29.2015094 62.5562465,20.0448769 66.6443716,5.97171684 L68.3790482,0 L61.9419699,1.3602864 C40.2281027,5.94864856 25.5962641,20.4132258 19.6274957,43.1898375 C17.118561,52.7641801 16.6460203,61.8349887 16.7163593,67.9701682 C11.5858417,64.0793124 9.02375601,60.6654499 8.95659019,60.5751609 L4.06961481,53.8402056 L1.84362277,61.7260961 C0.620094002,66.0604589 0,70.5443935 0,75.0533809 C0,103.482722 24.4732196,126.646782 54.6949354,126.991815 C54.922083,126.997271 55.1497591,127 55.3782288,127 C55.6066985,127 55.8343746,126.997271 56.0615222,126.991815 C86.2835023,126.646782 110.756458,103.482722 110.756458,75.0533809 C110.756458,74.102123 110.726312,73.1131617 110.666551,72.1145271 Z M55.3784932,119.552159 C45.1354393,119.552159 36.8023808,111.735473 36.8023808,102.127396 C36.8023808,85.3599565 45.2554915,77.8486157 51.8446184,74.540421 C51.0050456,78.7973929 51.749423,82.8311233 53.1480057,85.834469 C55.2325264,90.3104662 58.9520327,93.2423744 63.0980687,93.676952 C64.7267077,93.8471117 67.4527417,93.7153989 70.3101982,91.7650102 C72.6549202,94.7418149 73.9543411,98.3732142 73.9543411,102.127396 C73.9543411,111.735721 65.6210183,119.552159 55.3784932,119.552159 Z M78.8310039,113.720836 C80.7848949,110.256869 81.8939243,106.311443 81.8939243,102.127396 C81.8939243,95.0761814 78.6839794,88.3285754 73.0875316,83.615198 L69.8318398,80.8735411 L67.2382869,84.1787593 C66.577999,85.0203807 65.275405,86.4139054 63.9804797,86.2757435 C62.9534241,86.1680915 61.4554144,85.0680057 60.4241279,82.8531995 C58.9980441,79.7915631 58.7087552,74.9511857 62.1717618,70.5493546 L67.6671964,63.5636239 L58.4839874,64.6431216 C58.1743373,64.6795848 50.8165054,65.5936355 43.5205505,70.7373735 C31.4066374,79.2776109 28.8635909,92.5210557 28.8635909,102.127396 C28.8635909,106.312435 29.9728849,110.258605 31.9278337,113.723069 C17.6119918,106.053722 7.94064086,91.5936103 7.94064086,75.0531326 C7.94064086,73.6422449 8.01150877,72.2345815 8.1521868,70.8353521 C10.829565,73.2148608 14.4591642,75.9862831 19.0801206,78.5580281 L25.9783689,82.3945616 L25.0483601,74.921172 C25.0303787,74.7760649 23.2914712,60.2417867 27.3883225,44.7785746 C32.0727427,27.0955955 42.146031,15.5423388 57.3760158,10.3509759 C55.2520943,20.1889918 55.1399753,29.0427597 57.0801158,36.2326324 C59.2521635,44.2822338 64.0402412,50.0552655 70.216589,52.0708905 C74.5101783,53.4721045 79.1372165,52.9512071 83.2472893,50.6044403 C85.6131662,49.2535795 87.753482,47.330972 89.593403,44.92393 C93.5680865,51.5817431 95.0803752,58.5069502 94.0927202,65.5752802 C93.1584805,72.2613704 90.2248673,76.6294673 90.2050349,76.658737 L86.8089297,81.545995 L92.9646518,82.3779425 C96.0637993,82.7966451 99.3001876,82.1574292 102.461213,80.5208192 C100.59432,94.7437994 91.5435921,106.909482 78.8310039,113.720836 Z"></path>
                        </g>
                        <polygon id="Path-2" fill-rule="nonzero" points="5.34686347 63.130492 7.71897638 95.1570963 23.1622745 110.414917 40.9270589 119.161416 64.5345708 122.409639 87.4787702 113.334534 99.9897493 96.6640729 106.173432 79.1486371 102.072158 76.0792513 95.9365184 79.1486371 97.4480856 56.9936577 91.8378272 42.9814129 87.4787702 40.1018661 82.6816377 45.9645964 73.6157703 48.8964458 64.5345708 42.9814129 58.8044619 23.7747487 61.7397738 4.59036145 49.8084179 10.0016034 34.4654466 19.8510877 27.0439946 34.3669867 23.1622745 50.6757013 21.5132925 66.2851114 21.5132925 76.0792513"></polygon>
                    </g>
                </g>
                <text id="Most-heared-Songs-Copy" font-family="CircularStd-Black, Circular Std" font-size="100" font-weight="700" line-spacing="92" fill="#FFFFFF">
                    <tspan x="64.7436688" y="665.0617">Most</tspan>
                    <tspan x="64.7436688" y="764.7617">heared </tspan>
                    <tspan x="64.7436688" y="864.4617">Songs</tspan>
                </text>
            </g>
            <g id="wave" stroke-width="1" fill-rule="evenodd" transform="translate(456.415264, 460.732070) rotate(-134.000000) translate(-456.415264, -460.732070) translate(42.415264, 227.232070)"></g>
            <g id="wave-copy" stroke-width="1" fill-rule="evenodd" transform="translate(456.415264, 460.732070) rotate(-134.000000) translate(-456.415264, -460.732070) translate(42.415264, 227.232070)"></g>
        </g>
    </g>
</svg>