<?xml version="1.0" encoding="UTF-8"?>
<svg width="601px" height="601px" viewBox="0 0 601 601" version="1.1" xmlns="http://www.w3.org/2000/svg" xmlns:xlink="http://www.w3.org/1999/xlink">
    <!-- Generator: Sketch 58 (84663) - https://sketch.com -->
    <title>top100</title>
    <desc>Created with Sketch.</desc>
    <g id="Page-1" stroke="none" stroke-width="1" fill="none" fill-rule="evenodd">
        <g id="top100" transform="translate(0.000000, -0.000000)">
            <rect id="Rectangle" fill="#2B2B2D" fill-rule="evenodd" x="0" y="1.70530257e-13" width="601" height="601" rx="29"></rect>
            <path d="M601,529.289063 C601,353.203776 601,204.82015 601,28.7348633 C601,28.7348633 601,28.7348633 601,28.7348633 C601,12.8650365 588.134963,3.26118969e-14 572.265137,0 L39.9179687,0 L39.9179687,0 L29.0068929,0 C21.4297914,4.94460464e-15 14.1583355,2.98792806 8.77036806,8.31542969 L8.77036806,8.31542969 L8.77036806,8.31542969 C126.235026,31.8811849 196.455729,101.420573 219.4375,216.933594 C241.609944,328.378706 305.908728,392.92951 412.333852,410.586007 C421.070128,412.035403 453.706383,414.706754 488.453125,439 C523.199867,463.293246 540.399992,488.136992 545.84375,503.929688 C556.418622,534.608078 574.804039,556.354497 601,569.168945" id="Path" fill="#C4D4AF" fill-rule="evenodd"></path>
            <g id="flame" transform="translate(301.000000, 32.000000)" fill-rule="evenodd" stroke-width="1">
                <g fill="#ED1C24">
                    <g id="Shape" fill-rule="nonzero">
                        <path d="M270.780015,188.519866 L269.316465,162.359355 L253.381111,183.130713 C252.112313,184.784225 249.411022,187.709321 245.962428,190.375042 C247.325043,185.850254 248.541433,180.689999 249.345674,174.998025 C252.129136,155.286861 250.39578,125.034068 226.340378,92.8456937 L216.246931,79.3400638 L209.633135,94.8577913 C202.004171,112.757225 189.660403,121.737418 178.188165,117.734622 C169.356398,114.65455 162.177757,104.524679 158.494943,89.9406993 C155.059936,76.337804 153.063245,52.4007805 163.06611,15.6111023 L167.310534,0 L151.560227,3.5560243 C98.430521,15.5507978 62.6291931,53.3637083 48.0247513,112.905717 C41.885865,137.934707 40.7296477,161.647372 40.9017539,177.685794 C28.3483524,167.514423 22.0794158,158.589995 21.9150738,158.353964 L9.95757391,140.747624 L4.51099449,161.362708 C1.51725216,172.693483 0,184.415265 0,196.202539 C0,270.521761 59.8813168,331.076627 133.828111,331.978602 C134.383898,331.992867 134.940978,332 135.5,332 C136.059022,332 136.616102,331.992867 137.171889,331.978602 C211.11933,331.076627 271,270.521761 271,196.202539 C271,193.715786 270.92624,191.13047 270.780015,188.519866 Z M135.500647,312.530054 C110.437841,312.530054 90.0484307,292.095883 90.0484307,266.978705 C90.0484307,223.145713 110.731586,203.509767 126.853927,194.861573 C124.799652,205.990035 126.621002,216.534905 130.043068,224.386171 C135.143494,236.087203 144.244419,243.751719 154.388981,244.88778 C158.373951,245.332607 165.044038,244.988287 172.035691,239.889633 C177.77278,247.671516 180.952216,257.164623 180.952216,266.978705 C180.952216,292.096531 160.562159,312.530054 135.500647,312.530054 Z M192.884483,297.285966 C197.665283,288.230554 200.378867,277.916528 200.378867,266.978705 C200.378867,248.545608 192.524742,230.906197 178.831298,218.584612 L170.865239,211.417446 L164.519308,220.057859 C162.903709,222.258003 159.716509,225.900918 156.548073,225.539739 C154.035063,225.258318 150.369718,222.382503 147.846356,216.592616 C144.357,208.588968 143.649165,195.935383 152.122484,184.428234 L165.568768,166.166324 L143.099201,168.988318 C142.341546,169.083639 124.33833,171.473126 106.486515,184.919748 C76.8460723,207.245408 70.6237209,241.866067 70.6237209,266.978705 C70.6237209,277.919121 73.3379524,288.235093 78.1213405,297.291802 C43.0931965,277.242802 19.4292389,239.441564 19.4292389,196.20189 C19.4292389,192.513585 19.6026392,188.833709 19.9468516,185.175881 C26.4978871,191.396329 35.3788266,198.641307 46.6854285,205.364294 L63.564131,215.393657 L61.2885762,195.856922 C61.2445792,195.477587 56.9898029,157.482466 67.0140195,117.058951 C78.4759052,70.8325804 103.123327,40.630366 140.388205,27.059244 C135.191373,52.7775219 134.917039,75.9228048 139.664194,94.7183775 C144.978782,115.76143 156.694298,130.853135 171.806647,136.122328 C182.312244,139.785344 193.633727,138.423628 203.690294,132.288773 C209.479145,128.757389 214.716091,123.73136 219.218028,117.438935 C228.943323,134.843612 232.643606,152.947303 230.227002,171.425142 C227.941095,188.90374 220.763101,200.322702 220.714575,200.399218 L212.404951,213.175357 L227.466833,215.350212 C235.049858,216.444773 242.968685,214.773752 250.703113,210.49537 C246.135181,247.676704 223.98977,279.479907 192.884483,297.285966 Z"></path>
                    </g>
                    <polygon id="Path-2" fill-rule="nonzero" points="13.6148325 166 19.4292389 249.754822 57.283091 289.656525 100.827256 312.530054 158.692827 321.024689 214.932519 297.291802 245.598815 253.695813 260.755953 207.890076 250.703113 199.863129 235.663735 207.890076 239.368814 149.951172 225.617225 113.306854 214.932519 105.776367 203.174024 121.108368 180.952216 128.775635 158.692827 113.306854 144.647466 63.0782776 151.842358 12.907959 122.596806 27.059244 84.98887 52.8172607 66.7977721 90.778717 57.283091 133.42868 53.2411876 174.249847 53.2411876 199.863129"></polygon>
                </g>
                <g transform="translate(14.000000, 70.000000)" fill="#FA6400">
                    <g id="Shape" fill-rule="nonzero">
                        <path d="M213.826285,148.771701 L212.670566,128.126961 L200.086929,144.518816 C199.085,145.823696 196.951877,148.132055 194.228633,150.235726 C195.304647,146.664959 196.265191,142.59271 196.900274,138.100851 C199.098285,122.545655 197.729509,98.6714633 178.73373,73.2697944 L170.763259,62.6117371 L165.540557,74.8576546 C159.516209,88.9831113 149.768732,96.0698901 140.709473,92.9110571 C133.735311,90.4803979 128.066568,82.4863431 125.158368,70.9772988 C122.445854,60.2424839 120.869131,41.3524232 128.768072,12.3196048 L132.119757,0 L119.682246,2.80626014 C77.7274225,12.2720151 49.4562632,42.112324 37.9236043,89.1002947 C33.0759229,108.852088 32.1628952,127.565095 32.298802,140.221922 C22.3857838,132.195117 17.4354058,125.152345 17.3056302,124.96608 L7.86317645,111.07192 L3.56218753,127.34045 C1.19812532,136.282206 0,145.532528 0,154.834534 C0,213.48404 47.2863535,261.271314 105.679763,261.983114 C106.11865,261.994371 106.558558,262 107,262 C107.441442,262 107.88135,261.994371 108.320237,261.983114 C166.714157,261.271314 214,213.48404 214,154.834534 C214,152.872096 213.941754,150.831877 213.826285,148.771701 Z M107.000511,246.635163 C87.2092176,246.635163 71.1083549,230.509402 71.1083549,210.688014 C71.1083549,176.096918 87.4411786,160.601081 100.172474,153.776302 C98.5502787,162.558401 99.9885403,170.879955 102.690836,177.075834 C106.718479,186.309781 113.905187,192.358284 121.916022,193.254814 C125.062825,193.605853 130.329978,193.33413 135.851062,189.310494 C140.381457,195.451618 142.892156,202.943166 142.892156,210.688014 C142.892156,230.509913 126.790782,246.635163 107.000511,246.635163 Z M152.314684,234.60519 C156.089928,227.459052 158.232758,219.31967 158.232758,210.688014 C158.232758,196.141414 152.030608,182.221155 141.217335,172.497495 L134.926794,166.841478 L129.915616,173.660118 C128.639829,175.396376 126.123,178.271206 123.620988,177.98618 C121.636544,177.764094 118.742139,175.494626 116.749521,170.925498 C113.994089,164.609366 113.435134,154.623706 120.126242,145.542763 L130.744341,131.131256 L113.000845,133.358251 C112.402549,133.433474 98.1859875,135.319154 84.0889823,145.930645 C60.6828763,163.549087 55.7692851,190.87021 55.7692851,210.688014 C55.7692851,219.321716 57.9126266,227.462634 61.6899146,234.609796 C34.0293138,218.787994 15.3426462,188.956897 15.3426462,154.834022 C15.3426462,151.923371 15.4795749,149.019373 15.7513883,146.132774 C20.9245308,151.041681 27.9375236,156.759104 36.8659841,162.064593 L50.1945536,169.979332 L48.3976211,154.561788 C48.362878,154.262433 45.0030178,124.278332 52.9188198,92.3778469 C61.969903,55.8980002 81.4331807,32.0637226 110.860059,21.3539817 C106.756287,41.6497311 106.539654,59.9149845 110.28833,74.7476353 C114.48509,91.3538996 123.736457,103.263619 135.670194,107.421837 C143.966126,110.312531 152.906338,109.237923 160.847686,104.396562 C165.418956,101.609747 169.554404,97.6434227 173.109439,92.6777138 C180.789192,106.41273 183.711187,120.699378 181.802872,135.281287 C179.997765,149.074638 174.329534,158.085988 174.291214,158.146371 L167.729371,168.228746 L179.623256,169.945047 C185.611327,170.808827 191.86457,169.49013 197.9722,166.113816 C194.365051,195.455712 176.877531,220.553421 152.314684,234.60519 Z"></path>
                    </g>
                    <polygon id="Path-2" fill-rule="nonzero" points="11 130.737897 15.5876997 196.792154 45.4552553 228.261117 79.812598 246.300603 125.469858 253 169.844262 234.282771 194.040671 199.900264 206 163.775014 198.068079 157.444465 186.201666 163.775014 189.125058 118.080794 178.274739 89.1808075 169.844262 83.2417975 160.56654 95.3335662 143.033025 101.380449 125.469858 89.1808075 114.387747 49.5674309 120.064681 10 96.9892712 21.1605827 67.315749 41.4749553 52.9625565 71.4137187 45.4552553 105.05013 42.266101 137.244239 42.266101 157.444465"></polygon>
                </g>
                <g transform="translate(37.000000, 166.000000)" fill="#F7B500">
                    <g id="Shape" fill-rule="nonzero">
                        <path d="M144.882296,94.259933 L144.099216,81.1796775 L135.572919,91.5653565 C134.894042,92.3921125 133.448702,93.8546605 131.603513,95.187521 C132.332588,92.925127 132.983424,90.3449995 133.413737,87.4990125 C134.903043,77.6434305 133.975602,62.517034 121.10463,46.4228468 L115.704077,39.6700319 L112.165331,47.4288957 C108.083413,56.3786125 101.478813,60.868709 95.3405311,58.867311 C90.6150469,57.327275 86.7740766,52.2623395 84.8035673,44.9703496 C82.9656484,38.168902 81.8973082,26.2003903 87.2493946,7.80555115 L89.5203964,0 L81.0931104,1.77801215 C52.6657769,7.7753989 33.5100849,26.6818541 25.6959001,56.4528585 C22.4112562,68.9673535 21.7926159,80.823686 21.8847023,88.842897 C15.1679376,83.7572115 11.8137096,79.2949975 11.7257775,79.176982 L5.3278532,70.373812 L2.41363174,80.681354 C0.811813886,86.3467415 0,92.2076325 0,98.1012695 C0,135.260881 32.039819,165.538313 71.6054468,165.989301 C71.9028237,165.996433 72.2008923,166 72.5,166 C72.7991077,166 73.0971763,165.996433 73.3945532,165.989301 C112.960527,165.538313 145,135.260881 145,98.1012695 C145,96.857893 144.960534,95.565235 144.882296,94.259933 Z M72.5003462,156.265027 C59.0903577,156.265027 48.1808947,146.047941 48.1808947,133.489352 C48.1808947,111.572856 59.2475276,101.754883 67.8738724,97.4307865 C66.7747215,102.995017 67.7492446,108.267452 69.5802393,112.193085 C72.3092496,118.043601 77.1787482,121.875859 82.6066504,122.44389 C84.7388299,122.666303 88.3076956,122.494143 92.048617,119.944816 C95.1182771,123.835758 96.8194514,128.582311 96.8194514,133.489352 C96.8194514,146.048265 85.9096423,156.265027 72.5003462,156.265027 Z M103.203875,148.642983 C105.761867,144.115277 107.213785,138.958264 107.213785,133.489352 C107.213785,124.272804 103.011393,115.453098 95.6846428,109.292306 L91.4223604,105.708723 L88.026936,110.028929 C87.1625011,111.129001 85.4571727,112.950459 83.7618841,112.769869 C82.4172846,112.629159 80.4561222,111.191251 79.1059838,108.296308 C77.2389852,104.294484 76.8602543,97.9676915 81.393949,92.214117 L88.5884552,83.083162 L76.5659932,84.494159 C76.1606058,84.5418195 66.5278887,85.736563 56.9761796,92.459874 C41.1169022,103.622704 37.7875997,120.933033 37.7875997,133.489352 C37.7875997,138.95956 39.2398638,144.117546 41.7992412,148.645901 C23.0572454,138.621401 10.3957182,119.720782 10.3957182,98.100945 C10.3957182,96.2567925 10.488497,94.4168545 10.6726697,92.5879405 C14.1778363,95.6981645 18.9296305,99.3206535 24.9792883,102.682147 L34.0103284,107.696828 L32.7927806,97.928461 C32.7692398,97.7387935 30.492699,78.741233 35.8562097,58.5294755 C41.988953,35.4162902 55.1766879,20.315183 75.1154602,13.529622 C72.3348675,26.3887609 72.1880836,37.9614024 74.7280743,47.3591887 C77.571673,57.880715 83.8401225,65.4265675 91.9260657,68.061164 C97.5471416,69.892672 103.604762,69.211814 108.985582,66.1443865 C112.082937,64.3786945 114.884993,61.86568 117.293779,58.7194675 C122.49735,67.421806 124.477206,76.4736515 123.184189,85.712571 C121.961102,94.45187 118.120478,100.161351 118.094514,100.199609 L113.648406,106.587678 L121.707346,107.675106 C125.764684,108.222386 130.001695,107.386876 134.140042,105.247685 C131.695946,123.838352 119.846925,139.739953 103.203875,148.642983 Z"></path>
                    </g>
                    <polygon id="Path-2" fill-rule="nonzero" points="7 82.517021 10.1055198 124.378567 30.3235574 144.32186 53.5808356 155.754292 84.4872884 160 114.525347 148.138052 130.904454 126.348316 139 103.454124 133.6307 99.442171 125.598051 103.454124 127.576962 74.4956471 120.232131 56.1804294 114.525347 52.4166124 108.245043 60.0797086 96.3762017 63.9118898 84.4872884 56.1804294 76.9855515 31.0756558 80.8283995 6 65.208122 13.0729619 45.1214301 25.947091 35.4054228 44.9206283 30.3235574 66.2375309 28.1647453 86.6403818 28.1647453 99.442171"></polygon>
                </g>
            </g>
            <text id="Your-Hot-Tracks" font-family="Lato-Black, Lato" font-size="100" font-weight="700" line-spacing="88" fill="#FFFFFF">
                <tspan x="32" y="463">Your</tspan>
                <tspan x="32" y="558.7">Hot Tracks</tspan>
            </text>
            <text id="Top-100" font-family="Lato-Bold, Lato" font-size="55" font-weight="bold" line-spacing="60" fill="#FFFFFF" fill-opacity="0.6">
                <tspan x="32" y="339">Top</tspan>
                <tspan x="124.3175" y="340.154785" font-family="Lato-Regular, Lato" font-weight="normal"> </tspan>
                <tspan x="135.29" y="339">100</tspan>
                <tspan x="264.155" y="348.472641" font-family="Lato-Regular, Lato" font-weight="normal"></tspan>
            </text>
        </g>
    </g>
</svg>