<?xml version="1.0" encoding="UTF-8"?>
<svg width="1076px" height="463px" viewBox="0 0 1076 463" version="1.1" xmlns="http://www.w3.org/2000/svg" xmlns:xlink="http://www.w3.org/1999/xlink">
    <!-- Generator: Sketch 58 (84663) - https://sketch.com -->
    <title>firefly</title>
    <desc>Created with Sketch.</desc>
    <defs>
        <linearGradient x1="50%" y1="0%" x2="50%" y2="100%" id="linearGradient-1">
            <stop stop-color="#FF2908" offset="0%"></stop>
            <stop stop-color="#EC4208" offset="100%"></stop>
        </linearGradient>
    </defs>
    <g id="Page-1" stroke="none" stroke-width="1" fill="none" fill-rule="evenodd">
        <g id="firefly" transform="translate(0.000000, 0.400000)">
            <g stroke-width="1" fill-rule="evenodd" transform="translate(0.000000, -0.000000)" fill="url(#linearGradient-1)" id="Path-3">
                <g transform="translate(0.000000, 0.079741)" fill-rule="nonzero">
                    <path d="M148.399215,460.920259 C120.606411,456.720259 93.2238333,445.620259 70.558853,429.320259 C59.6878669,421.520259 42.0481537,404.320259 34.0487488,393.720259 C11.4863249,363.820259 0,329.620259 0,292.020259 C0,261.420259 7.28150954,233.920259 22.152198,208.320259 C30.5618288,193.820259 38.868903,183.320259 52.2012444,170.520259 C65.7386988,157.520259 75.5841201,150.320259 91.7880427,141.720259 C98.0439875,138.420259 104.915271,134.220259 107.171514,132.520259 C110.863547,129.620259 121.631976,122.520259 151.270797,103.620259 C172.192317,90.3202592 176.807358,86.4202592 186.242554,74.5202592 C195.575193,62.6202592 199.369782,52.8202592 199.164669,41.8202592 C199.062113,34.6202592 202.754146,40.0202592 205.728283,51.3202592 C209.625429,65.9202592 206.241066,78.9202592 194.344515,94.0202592 C186.65278,103.720259 183.16586,111.420259 184.088868,116.520259 C186.037441,127.720259 196.293088,133.020259 208.292195,129.020259 C216.906939,126.120259 222.650101,120.120259 227.572812,108.520259 C242.75117,73.4202592 259.365319,49.7202592 281.004734,32.2202592 C306.233626,11.8202592 326.334695,3.42025918 357.409306,0.520259177 C368.895631,-0.479740823 386.432788,0.0202591775 388.073691,1.52025918 C388.586474,2.02025918 386.740457,3.52025918 383.971432,4.92025918 C378.433383,7.82025918 378.535939,7.72025918 366.229163,15.6202592 C351.050805,25.4202592 338.128689,40.0202592 327.873042,59.0202592 C315.976491,81.1202592 314.540701,100.820259 323.87334,114.220259 C330.84718,124.320259 336.795455,127.520259 348.076667,127.620259 C355.25562,127.620259 358.024645,126.920259 371.767212,121.320259 C388.586474,114.420259 387.766022,114.720259 391.970837,114.020259 C396.278209,113.320259 405.098066,114.320259 407.251752,115.620259 C408.379873,116.420259 408.277316,116.820259 406.636413,118.020259 C401.20092,121.920259 387.971135,134.620259 383.971432,139.720259 C365.921493,162.520259 358.434871,184.420259 355.358177,224.020259 C354.127499,241.120259 352.589152,256.220259 351.666144,262.320259 C351.050805,266.020259 350.230353,279.420259 349.820127,292.020259 C349.204788,309.320259 348.384336,317.620259 346.743433,325.520259 C331.462519,396.920259 273.825781,450.220259 200.497903,461.020259 C187.780901,462.820259 160.808549,462.820259 148.399215,460.920259 Z" id="Path"></path>
                </g>
            </g>
            <text font-family="KozGoPro-Bold, Kozuka Gothic Pro" font-size="245" font-weight="bold" fill="#FFFFFF">
                <tspan x="416" y="367.6">firefly</tspan>
            </text>
        </g>
    </g>
</svg>